<svg xmlns="http://www.w3.org/2000/svg" viewBox="0 0 401.98 559.47" height="450">
  <path fill="#777" stroke="#000" stroke-width="3" d="M10.63 300.5c.77 15.74 16.5 8.46 23.63 3.53 6.77-4.67 8.74-.8 9.34-10 .4-6.08 1.1-12.14.74-18.23-10.23-.93-21.36 1.5-29.74 7.6-4.32 3.14-12.42 13.16-3.97 17.1" stroke-linecap="round"/>
  <path fill="#C6B198" stroke="#000" stroke-width="3" d="M10.63 300.5c2.3-.86 4.72-1.46 6.27-3.54" stroke-linecap="round"/>
  <path fill="#BBB" stroke="#000" stroke-width="3" d="M47 112.85C-13.3 95.9 31.54 19.2 79.96 50.75L47 112.85zm267.9-67.87c47.72-33.52 90.85 42.12 35.38 61.15L314.9 44.98z" stroke-linecap="round"/>
  <path fill="#777" stroke="#000" stroke-width="3" d="M325.16 494.34c12.12 7.5 34.28 30.2 16.1 41.18-17.48 16-27.26-17.56-42.6-22.2 6.6-8.98 14.98-17.16 26.5-18.98z" stroke-linecap="round"/>
  <path fill="none" stroke="#000" stroke-width="3" d="M341.26 535.52c-2.7-5.36-3.6-11.62-8.1-15.94" stroke-linecap="round"/>
  <path fill="#777" stroke="#000" stroke-width="3" d="M108.58 519.98c-14.23 2.2-22.24 15.03-34.1 21.55-11.18 6.67-15.46-2.13-16.46-3.92-1.75-.8-1.6.8-4.3-1.9-10.37-16.3 10.8-28.3 21.8-36.4 15.35-3.1 24.97 10.2 33.06 20.8z" stroke-linecap="round"/>
  <path fill="none" stroke="#000" stroke-width="3" d="M58.02 537.6c.54-6.22 5.48-10.4 7.84-15.67" stroke-linecap="round"/>
  <path fill="#777" d="M49.5 91.67c-7.94-4.2-13.78-9.93-8.9-19.13 4.5-8.52 12.86-7.6 20.82-3.38l-11.9 22.5zm288.22-8c7.95-4.2 13.8-9.93 8.92-19.13-4.5-8.52-12.87-7.6-20.83-3.38l12 22.5z"/>
  <path fill="#777" stroke="#000" stroke-width="3" d="M392.48 298.5c-.77 15.74-16.5 8.46-23.63 3.53-6.77-4.67-8.74-.8-9.34-10-.3-6.08-1-12.14-.7-18.23 10.3-.93 21.4 1.5 29.8 7.6 4.4 3.14 12.5 13.16 4 17.1" stroke-linecap="round"/>
  <path fill="#C6B198" stroke="#000" stroke-width="3" d="M392.48 298.5c-2.3-.86-4.72-1.46-6.28-3.54" stroke-linecap="round"/>
  <path fill="#BBB" stroke="#000" stroke-width="3" d="M195.5 13.12c60.38 0 116.97 8.64 146.46 66.63 26.48 65 17.07 135.1 21.1 203.8 3.47 59 11.16 127.15-16.2 181.82-28.8 57.52-100.74 71.98-160 69.86-46.56-1.66-102.8-16.85-129.07-59.38-30.9-49.9-16.3-124.1-14-179.63 2.6-65.77-17.9-131.74 3.7-196.1 22.4-66.76 82.8-81.85 147.9-87" stroke-linecap="round"/>
  <path fill="#FFF" stroke="#000" stroke-width="2.91" d="M206.17 94.16c10.84 63 113.82 46.34 99.03-17.2-13.26-56.98-102.63-41.2-99.03 17.2" stroke-linecap="round"/>
  <path fill="#FFF" stroke="#000" stroke-width="2.82" d="M83.1 104.35c14.05 54.85 101.87 40.8 98.56-14.2-3.97-65.9-112-53.2-98.56 14.2" stroke-linecap="round"/>
  <path fill="#FFF" stroke="#000" stroke-width="3" d="M218.6 169.76c.04 8.2 1.85 17.4.3 26.1-2.08 3.95-6.2 4.37-9.72 5.97-4.9-.77-9-3.98-10.97-8.55-1.2-9.95.5-19.58.8-29.53l19.6 6z" stroke-linecap="round"/>
  <ellipse cx="107.32" cy="95.4" rx="14.83" ry="16.06"/>
  <ellipse cx="114.07" cy="99.03" fill="#FFF" rx="3.5" ry="4.08"/>
  <ellipse cx="231.57" cy="91.4" rx="14.58" ry="16.06"/>
  <ellipse cx="238.2" cy="95.03" fill="#FFF" rx="3.44" ry="4.08"/>
  <path fill="#FFF" stroke="#000" stroke-width="3" d="M176.22 168.87c-6.47 15.68 3.6 47.03 21.16 23.9-1.25-9.94.47-19.57.8-29.52l-21.96 5.62z" stroke-linecap="round"/>
  <path fill="#888" stroke="#231F20" stroke-width="3" d="M178.43 138.67c-12.06 1.03-21.9 15.37-15.64 26.7 8.3 15.04 26.8-1.32 38.3.22 13.3.2 24.1 14 34.8 2.4 11.8-12.9-5.1-25.4-18.4-31l-39.2 1.5z" stroke-linecap="round"/>
  <path d="M176.9 138.04c-.88-20.9 38.95-23.5 43.66-6 4.7 17.44-41.7 21.5-43.65 6-1.5-12.36 0 0 0 0z"/>
  <path d="M32.48 62.86c-.28.7-.28 1.35-.34 2.04 0 .35-.2.67-.16 1.02-.02.28.02.58.03.8.3 6.02 5.4 8.3 7.9 9.27 3.3 1.3 5.6 2.1 5.9 9.7 1.2 32.3 21.9 66.2 76.4 64.2 41.4-1.5 66.9-27.2 65.2-74.6l-6.1-15.1c2.6-1.6 7.1-3.7 12.9-4 5.8-.2 10.5 1.6 13.1 3L202 75.9c1.7 47.33 29.32 69.9 70.64 68.4 54.5-2 72.77-36.8 71.6-68.77-.3-8 2-9.14 5.1-10.55 2.2-1 7.4-3.2 7.17-9.4 0-.4-.2-.9-.2-1.4.1-1.1 0-2.1-.5-3.2-5.1-10.3-9-8.1-18.3-7.83-12.7-2.46-34-3.85-69.7-2.55-13.6.5-27.7 3.26-40.2 5.7-4.3.9-8.6 1.8-12.5 2.5-3.7-2.2-11.4-5.9-21.3-5.5-9.8.34-17.2 4.54-20.8 7.03-3.9-.4-8.2-1-12.6-1.57-12.5-1.58-26.8-3.3-40.5-2.8-35.7 1.3-56.8 4.25-69.3 7.6-10.4 1.8-13.3-1.5-17.7 9.14zm299.4 160.24c-12.54-2.74-19.94-6.63-25.35-9.48-4.2-2.2-7.22-3.8-10.58-3.8-3.35 0-6.38 1.6-10.58 3.8-5.4 2.84-12.8 6.74-25.34 9.5l-1.33.28v1.36c0 51.58 36.17 68.88 36.54 69.05l.75.4.7-.3c.3-.2 36.5-19.1 36.5-69v-1.3l-1.4-.3zm-59.95 27.17c.1 0 .2.05.27.14.07.1.12.2.16.4l.07.4.02.4v.4c.15.3.34.5.57.8.24.3.5.5.8.8s.64.5 1 .6c.36.2.74.3 1.14.3.43 0 .84-.1 1.22-.3s.72-.4 1.05-.8.62-.7.9-1.1c.27-.4.52-.9.74-1.3s.4-.9.58-1.4.3-.9.44-1.3c.1-.4.2-.7.2-1l.1-.6c.2-.7.3-1.5.5-2.2.1-.7.2-1.3.2-2 0-.1-.1-.2-.2-.3l-2.7.8c-.2.1-.3.1-.4.1-.3 0-.5-.1-.7-.2s-.3-.4-.3-.7 0-.6.1-.8c0-.2.1-.3.3-.4.1-.1.3-.2.5-.2h.9l.7-.1.9-.2c.3-.1.7-.1 1-.2l1.1-.3 1.1-.3 1-.3h.2l.4-.1.4-.1h.2c.1 0 .2.1.3.1s.1.1.1.2l.1.3v.2c0 .2-.1.4-.2.6-.2.2-.4.3-.7.4l-.9.3-.9.3c-.3.1-.5.1-.7.2s-.3.2-.3.3c-.1.3-.1.7-.1 1l-.2 1.1-.1.7c0 .3-.1.7-.2 1.2l-.3 1.6c-.1.6-.24 1.2-.4 1.7-.15.6-.4 1.2-.64 1.9-.3.7-.6 1.4-1 2-.4.6-.8 1.2-1.3 1.8-.5.6-1 1-1.6 1.4l-.44.2-.54.2c-.2.1-.4.1-.6.2-.2.1-.4.1-.65.1-.4 0-.8-.1-1.2-.2-.4-.1-.8-.3-1.3-.5s-.8-.4-1.3-.63c-.4-.3-.8-.6-1.1-.9-.3-.3-.6-.7-.7-1-.2-.4-.3-.7-.3-1.1 0-.3 0-.6.1-.8 0-.3.1-.4.3-.6s.3-.2.5-.3c.2-.1.5-.1.8-.1zm14.88.07c.2-.66.4-1.34.7-2.06l.8-2.18.9-2.26c.3-.77.5-1.54.7-2.3l.2-.52.1-.5c.1-.2.2-.34.4-.44.2-.1.3-.15.5-.15s.3.03.5.08.3.2.4.3.2.3.3.5c.1.2.1.4.1.6 0 .3 0 .6-.1.9l-.9 2.1-.8 2.1c-.3.7-.5 1.3-.7 2l-.6 2c0 .1 0 .2-.1.4l-.1.6-.1.8v1.3l.1.4c.1.1.1.2.2.3.1.1.2.1.3.1.3 0 .6-.1 1-.4.4-.3.9-.6 1.3-1.1.5-.5 1-1 1.4-1.7.5-.6 1-1.3 1.5-2.1.5-.7.9-1.5 1.3-2.3.4-.8.8-1.6 1-2.3.1-.2.2-.2.3-.3h.4c.3 0 .5.1.7.3.2.2.3.4.3.7v.4l-.2.4-.4.9c-.1.3-.2.5-.2.8l-.2 1-.1.8v2.1c0 .2.1.4.1.7 0 .3.1.5.2.8l.2.7.3.5s.2.2.4.2.5-.1.7-.3c.3-.2.5-.4.8-.72l.8-1.1c.3-.4.5-.8.78-1.3l.7-1.54.6-1.56.47-1.5c.1-.5.2-.9.3-1.3l.2-1.1.2-1.1.2-1.1s.1-.7.2-1.1c.07-.16.1-.3.2-.4s.1-.3.2-.4c.1-.1.2-.2.37-.3.1-.1.3-.1.4-.1.3 0 .6.1.7.23.1.2.2.5.2.9 0 .3 0 .6-.1 1l-.2 1.3-.3 1.3-.3 1.3c-.2.8-.45 1.7-.8 2.6-.3.9-.7 1.76-1.1 2.6-.4.84-.8 1.6-1.3 2.37-.44.73-.9 1.4-1.4 1.9-.1.2-.3.4-.54.6-.2.2-.47.35-.7.5-.27.2-.5.3-.8.4s-.5.2-.7.2c-.5 0-.9-.1-1.25-.4-.3-.3-.6-.7-.8-1.2-.2-.4-.4-1-.5-1.6-.1-.6-.2-1.3-.23-1.9-.4.6-.8 1.1-1.1 1.6s-.7.9-1 1.3l-.9.93-1 1c-.4.3-.8.5-1.15.7s-.7.3-1.1.3c-.42 0-.8-.07-1.1-.2s-.5-.3-.7-.6c-.12-.27-.3-.57-.32-.9-.1-.37-.1-.7-.1-1.1 0-.5 0-1 .1-1.5l.3-1.5zm24.5 3.1c.3-1.2.6-2.4 1-3.62l1-3.62.4-1.36.3-1.1c.1-.34.2-.64.2-.9.1-.28.1-.53.1-.76v-.34c-.1 0-.2.04-.5.12l-.9.3-1 .45-1 .5-.6.4-.4.2-.3.1-.3.1c-.2 0-.4-.1-.6-.2-.1-.2-.2-.4-.2-.6 0-.1.1-.3.1-.4.1-.1.1-.2.2-.3.1-.1.2-.2.3-.2.1-.1.3-.1.4-.2 1.8-.9 3.7-1.6 5.5-2.1 1.9-.4 3.8-.6 5.6-.6.2 0 .4 0 .6.1h.6c.3 0 .5.1.7.1.2 0 .4.1.6.1.2.1.3.2.5.3s.2.3.2.5v.4c0 .2 0 .3-.1.4 0 .1-.1.2-.2.3-.2.1-.3.1-.4.1l-.9-.1h-1c-.7 0-1.4.1-2.1.1l-2.1.3v.4c0 .4-.1.7-.1 1s-.1.6-.2.9l-.3 1-.4 1.2-.5 1.7c-.2.6-.4 1.4-.6 2.4l-.5 2.1-.3 1.3-.1 1.1c-.1.1-.2.3-.4.4-.2.1-.5.17-.7.17-.2 0-.3 0-.4-.1-.2-.1-.3-.2-.3-.3-.1-.16-.2-.3-.2-.46v-.46z"/>
</svg>